<svg width="55" height="37" viewBox="0 0 55 37" fill="none" xmlns="http://www.w3.org/2000/svg">
<path d="M40.1035 36.708V16.308H46.4935C48.7135 16.308 50.6135 16.818 52.1935 17.838C53.7735 18.838 54.5635 20.508 54.5635 22.848C54.5435 25.168 53.6835 26.878 51.9835 27.978C50.3035 29.058 48.3835 29.598 46.2235 29.598H43.9735V36.708H40.1035ZM46.3735 19.548H43.9735V26.388H46.4335C47.5935 26.388 48.5335 26.128 49.2535 25.608C49.9735 25.068 50.3735 24.228 50.4535 23.088C50.4535 21.768 50.0935 20.848 49.3735 20.328C48.6535 19.808 47.6535 19.548 46.3735 19.548Z" fill="white"/>
<path d="M21.8809 36.708V16.308H28.2709C30.4909 16.308 32.3909 16.818 33.9709 17.838C35.5509 18.838 36.3409 20.508 36.3409 22.848C36.3209 25.168 35.4609 26.878 33.7609 27.978C32.0809 29.058 30.1609 29.598 28.0009 29.598H25.7509V36.708H21.8809ZM28.1509 19.548H25.7509V26.388H28.2109C29.3709 26.388 30.3109 26.128 31.0309 25.608C31.7509 25.068 32.1509 24.228 32.2309 23.088C32.2309 21.768 31.8709 20.848 31.1509 20.328C30.4309 19.808 29.4309 19.548 28.1509 19.548Z" fill="white"/>
<path d="M9.51 21.648L6.84 28.758H12.24L9.51 21.648ZM11.25 16.308L19.17 36.168L15.27 36.708L13.44 31.908H5.7L3.9 36.708H0L7.95 16.308H11.25Z" fill="white"/>
<path d="M53.9739 0V12.708H51.6519V0.197999L53.9739 0Z" fill="white"/>
<path d="M49.1926 0V12.708H46.8706V0.197999L49.1926 0Z" fill="white"/>
<path d="M41.4537 12.924C39.9417 12.924 38.7477 12.51 37.8717 11.682C37.0077 10.854 36.5757 9.74402 36.5757 8.35202C36.5757 6.96002 36.9657 5.84402 37.7457 5.00402C38.5377 4.16402 39.6117 3.74402 40.9677 3.74402C42.3357 3.74402 43.3377 4.20002 43.9737 5.11202C44.6217 6.01202 44.9457 7.08002 44.9457 8.31602V9.03602H39.0597C39.1677 9.61202 39.4317 10.074 39.8517 10.422C40.2717 10.758 40.8237 10.926 41.5077 10.926C41.9037 10.926 42.2577 10.878 42.5697 10.782C42.8937 10.674 43.2657 10.524 43.6857 10.332L44.3697 12.024C43.9617 12.336 43.4637 12.564 42.8757 12.708C42.2997 12.852 41.8257 12.924 41.4537 12.924ZM42.7317 7.47002C42.6117 6.88202 42.3957 6.45002 42.0837 6.17402C41.7717 5.88602 41.3817 5.74202 40.9137 5.74202C40.4337 5.74202 40.0317 5.89202 39.7077 6.19202C39.3837 6.48002 39.1737 6.90602 39.0777 7.47002H42.7317Z" fill="white"/>
<path d="M35.6385 12.528C35.4465 12.684 35.1705 12.81 34.8105 12.906C34.4625 13.014 34.1505 13.068 33.8745 13.068C32.7945 13.068 31.9425 12.798 31.3185 12.258C30.7065 11.706 30.4005 10.926 30.4005 9.91802V5.79602H29.2305V3.99602H30.4005V1.92602L32.7225 1.51202V3.99602H34.3065L35.0265 5.79602H32.7225V9.50402C32.7225 9.96002 32.8305 10.338 33.0465 10.638C33.2625 10.926 33.5805 11.07 34.0005 11.07C34.1565 11.07 34.3125 11.052 34.4685 11.016C34.6245 10.98 34.7865 10.92 34.9545 10.836L35.6385 12.528Z" fill="white"/>
<path d="M27.5991 6.33602C27.1791 6.14402 26.7891 6.00002 26.4291 5.90402C26.0691 5.79602 25.6851 5.74202 25.2771 5.74202C24.9771 5.74202 24.7431 5.80202 24.5751 5.92202C24.4191 6.03002 24.3411 6.18602 24.3411 6.39002C24.3411 6.53402 24.4371 6.67202 24.6291 6.80402C24.8331 6.93602 25.1571 7.08002 25.6011 7.23602C26.3331 7.50002 27.0111 7.87202 27.6351 8.35202C28.2591 8.82002 28.5711 9.43202 28.5711 10.188C28.5711 11.052 28.2591 11.724 27.6351 12.204C27.0231 12.684 26.1231 12.924 24.9351 12.924C24.5631 12.924 24.0651 12.852 23.4411 12.708C22.8291 12.564 22.3191 12.336 21.9111 12.024L22.6131 10.332C23.0331 10.524 23.4351 10.674 23.8191 10.782C24.2151 10.878 24.5751 10.926 24.8991 10.926C25.3311 10.926 25.6611 10.866 25.8891 10.746C26.1171 10.626 26.2311 10.47 26.2311 10.278C26.2311 10.038 26.1171 9.82202 25.8891 9.63002C25.6611 9.43802 25.3011 9.26402 24.8091 9.10802C24.1131 8.88002 23.4531 8.55602 22.8291 8.13602C22.2171 7.70402 21.9111 7.12802 21.9111 6.40802C21.9111 5.58002 22.2171 4.93202 22.8291 4.46402C23.4411 3.98402 24.2691 3.74402 25.3131 3.74402C25.6851 3.74402 26.1651 3.82202 26.7531 3.97802C27.3411 4.13402 27.8571 4.36202 28.3011 4.66202L27.5991 6.33602Z" fill="white"/>
<path d="M17.1783 12.924C15.6663 12.924 14.4723 12.51 13.5963 11.682C12.7323 10.854 12.3003 9.74402 12.3003 8.35202C12.3003 6.96002 12.6903 5.84402 13.4703 5.00402C14.2623 4.16402 15.3363 3.74402 16.6923 3.74402C18.0603 3.74402 19.0623 4.20002 19.6983 5.11202C20.3463 6.01202 20.6703 7.08002 20.6703 8.31602V9.03602H14.7843C14.8923 9.61202 15.1563 10.074 15.5763 10.422C15.9963 10.758 16.5483 10.926 17.2323 10.926C17.6283 10.926 17.9823 10.878 18.2943 10.782C18.6183 10.674 18.9903 10.524 19.4103 10.332L20.0943 12.024C19.6863 12.336 19.1883 12.564 18.6003 12.708C18.0243 12.852 17.5503 12.924 17.1783 12.924ZM18.4563 7.47002C18.3363 6.88202 18.1203 6.45002 17.8083 6.17402C17.4963 5.88602 17.1063 5.74202 16.6383 5.74202C16.1583 5.74202 15.7563 5.89202 15.4323 6.19202C15.1083 6.48002 14.8983 6.90602 14.8023 7.47002H18.4563Z" fill="white"/>
<path d="M5.90403 0.468018C7.09203 0.468018 8.05803 0.732017 8.80203 1.26002C9.54603 1.77602 9.91803 2.65202 9.91803 3.88802C9.91803 4.34402 9.81003 4.75802 9.59403 5.13002C9.39003 5.49002 9.12003 5.80202 8.78403 6.06602C9.33603 6.35402 9.78603 6.74402 10.134 7.23602C10.494 7.72802 10.674 8.35202 10.674 9.10802C10.674 10.236 10.278 11.118 9.48603 11.754C8.70603 12.39 7.66203 12.708 6.35403 12.708H1.33203V0.468018H5.90403ZM5.56203 2.41202H3.65403V5.45402H5.38203C6.03003 5.45402 6.53403 5.33402 6.89403 5.09402C7.26603 4.84202 7.45203 4.45202 7.45203 3.92402C7.45203 3.34802 7.28403 2.95202 6.94803 2.73602C6.61203 2.52002 6.15003 2.41202 5.56203 2.41202ZM6.33603 7.34402H3.65403V10.782H6.17403C6.79803 10.782 7.29603 10.638 7.66803 10.35C8.05203 10.062 8.24403 9.65402 8.24403 9.12602C8.24403 8.55002 8.07003 8.11202 7.72203 7.81202C7.37403 7.50002 6.91203 7.34402 6.33603 7.34402Z" fill="white"/>
</svg>
